<?xml version="1.0" standalone="no"?>
<!DOCTYPE svg PUBLIC "-//W3C//DTD SVG 20010904//EN"
 "http://www.w3.org/TR/2001/REC-SVG-20010904/DTD/svg10.dtd">
<svg version="1.0" xmlns="http://www.w3.org/2000/svg"
 width="64.000000pt" height="64.000000pt" viewBox="0 0 64.000000 64.000000"
 preserveAspectRatio="xMidYMid meet">

<g transform="translate(0.000000,64.000000) scale(0.100000,-0.100000)"
fill="#000000" stroke="none">
<path d="M90 569 c-67 -70 -76 -94 -56 -161 42 -146 225 -330 370 -373 27 -8
55 -15 62 -15 20 0 128 85 143 113 13 25 13 29 -8 51 -24 25 -130 86 -150 86
-7 0 -23 -12 -37 -27 -24 -26 -26 -26 -57 -11 -51 24 -92 63 -117 112 l-24 45
27 25 c33 31 33 35 3 95 -31 60 -73 111 -92 111 -9 0 -37 -23 -64 -51z m104
-54 l36 -59 -30 -31 -29 -30 23 -50 c30 -64 87 -121 151 -151 l50 -23 30 29
31 30 62 -37 62 -37 -31 -32 c-17 -17 -45 -39 -62 -49 -31 -16 -35 -16 -87 4
-124 47 -274 197 -321 321 -15 41 -18 60 -10 77 11 23 82 106 87 101 1 -2 19
-30 38 -63z"/>
</g>
</svg>
